<svg width="1863" height="100" viewBox="0 0 1863 100" fill="none" xmlns="http://www.w3.org/2000/svg">
<g id="desktop">
<g id="logo">
<g id="TWENTY TWOS">
<path d="M258.938 1.53809V10.459H243.865V51.9189H233.27V10.459H218.128V1.53809H258.938Z" fill="white"/>
<path d="M271.995 1.53809L278.66 30.3857L280.096 38.418L281.565 30.5566L287.239 1.53809H298.348L304.329 30.3857L305.867 38.418L307.405 30.6934L314.139 1.53809H324.837L310.652 51.9189H300.604L294.52 22.4561L292.742 12.7148L290.965 22.4561L284.881 51.9189H275.105L260.818 1.53809H271.995Z" fill="white"/>
<path d="M368.484 10.459H341.824V21.1572H366.297V29.9072H341.824V42.8613H369.715V51.9189H331.536V1.53809H368.484V10.459Z" fill="white"/>
<path d="M377.747 1.53809H388.787L408.851 36.709V1.53809H418.66V51.9189H408.133L387.557 16.1328V51.9189H377.747V1.53809Z" fill="white"/>
<path d="M465.11 1.53809V10.459H450.037V51.9189H439.441V10.459H424.3V1.53809H465.11Z" fill="white"/>
<path d="M500.042 1.53809H511.971L495.12 32.9834V51.9189H484.593V32.9834L467.161 1.53809H479.568L490.027 23.4814L500.042 1.53809Z" fill="white"/>
<path d="M572.845 1.53809V10.459H557.771V51.9189H547.176V10.459H532.034V1.53809H572.845Z" fill="white"/>
<path d="M585.901 1.53809L592.566 30.3857L594.002 38.418L595.472 30.5566L601.146 1.53809H612.254L618.235 30.3857L619.773 38.418L621.312 30.6934L628.045 1.53809H638.743L624.559 51.9189H614.51L608.426 22.4561L606.648 12.7148L604.871 22.4561L598.787 51.9189H589.012L574.725 1.53809H585.901Z" fill="white"/>
<path d="M667.42 44.3994C671.59 44.3994 674.894 42.8613 677.332 39.7852C679.793 36.709 681.023 32.334 681.023 26.6602C681.023 21.0091 679.793 16.6455 677.332 13.5693C674.894 10.4704 671.59 8.9209 667.42 8.9209C663.25 8.9209 659.923 10.459 657.439 13.5352C654.956 16.6113 653.714 20.9863 653.714 26.6602C653.714 32.334 654.956 36.709 657.439 39.7852C659.923 42.8613 663.25 44.3994 667.42 44.3994ZM691.551 26.6602C691.551 35.7064 689.01 42.6335 683.929 47.4414C680.123 51.3607 674.62 53.3203 667.42 53.3203C660.219 53.3203 654.716 51.3607 650.911 47.4414C645.807 42.6335 643.255 35.7064 643.255 26.6602C643.255 17.4316 645.807 10.5046 650.911 5.87891C654.716 1.95964 660.219 0 667.42 0C674.62 0 680.123 1.95964 683.929 5.87891C689.01 10.5046 691.551 17.4316 691.551 26.6602Z" fill="white"/>
<path d="M707.239 36.3672C707.558 38.6686 708.185 40.389 709.119 41.5283C710.828 43.6019 713.756 44.6387 717.903 44.6387C720.387 44.6387 722.404 44.3652 723.953 43.8184C726.893 42.7702 728.362 40.8219 728.362 37.9736C728.362 36.3102 727.633 35.0228 726.175 34.1113C724.716 33.2227 722.426 32.4365 719.305 31.7529L713.973 30.5566C708.732 29.3717 705.109 28.0843 703.104 26.6943C699.708 24.3701 698.011 20.7357 698.011 15.791C698.011 11.2793 699.651 7.53092 702.933 4.5459C706.214 1.56087 711.033 0.0683594 717.391 0.0683594C722.7 0.0683594 727.223 1.48112 730.96 4.30664C734.72 7.10938 736.691 11.1882 736.873 16.543H726.756C726.574 13.5124 725.252 11.359 722.791 10.083C721.15 9.23991 719.111 8.81836 716.673 8.81836C713.961 8.81836 711.797 9.36523 710.179 10.459C708.561 11.5527 707.752 13.0794 707.752 15.0391C707.752 16.8392 708.549 18.1836 710.145 19.0723C711.17 19.6647 713.357 20.3597 716.707 21.1572L725.389 23.2422C729.194 24.1536 732.065 25.3727 734.002 26.8994C737.01 29.2692 738.514 32.6986 738.514 37.1875C738.514 41.7904 736.748 45.6185 733.216 48.6719C729.707 51.7025 724.739 53.2178 718.313 53.2178C711.751 53.2178 706.59 51.7253 702.83 48.7402C699.07 45.7324 697.19 41.6081 697.19 36.3672H707.239Z" fill="white"/>
</g>
</g>
<g id="logo_2">
<g id="ART AND DESIGN DREAM TEAM">
<path d="M824.104 31.3428L816.481 9.16016L808.381 31.3428H824.104ZM812.927 1.70898H820.617L838.835 51.9189H831.384L826.291 36.8799H806.433L800.998 51.9189H794.025L812.927 1.70898Z" fill="white"/>
<path d="M868.366 24.7119C871.556 24.7119 874.074 24.0739 875.92 22.7979C877.788 21.5218 878.723 19.2204 878.723 15.8936C878.723 12.3161 877.424 9.87793 874.826 8.5791C873.436 7.89551 871.579 7.55371 869.255 7.55371H852.644V24.7119H868.366ZM845.842 1.70898H869.084C872.912 1.70898 876.068 2.26725 878.552 3.38379C883.269 5.52572 885.627 9.47917 885.627 15.2441C885.627 18.252 885 20.7129 883.747 22.627C882.517 24.541 880.785 26.0791 878.552 27.2412C880.511 28.0387 881.981 29.0869 882.961 30.3857C883.964 31.6846 884.522 33.7923 884.636 36.709L884.875 43.4424C884.943 45.3564 885.103 46.7806 885.354 47.7148C885.764 49.3099 886.493 50.3353 887.541 50.791V51.9189H879.201C878.973 51.486 878.791 50.9277 878.654 50.2441C878.518 49.5605 878.404 48.2389 878.312 46.2793L877.902 37.9053C877.743 34.624 876.524 32.4251 874.245 31.3086C872.946 30.6934 870.907 30.3857 868.127 30.3857H852.644V51.9189H845.842V1.70898Z" fill="white"/>
<path d="M930.915 1.70898V7.69043H913.996V51.9189H907.092V7.69043H890.173V1.70898H930.915Z" fill="white"/>
<path d="M977.365 31.3428L969.743 9.16016L961.643 31.3428H977.365ZM966.188 1.70898H973.879L992.097 51.9189H984.646L979.553 36.8799H959.694L954.26 51.9189H947.287L966.188 1.70898Z" fill="white"/>
<path d="M998.283 1.70898H1006.32L1031.68 42.3828V1.70898H1038.14V51.9189H1030.51L1004.78 11.2793V51.9189H998.283V1.70898Z" fill="white"/>
<path d="M1068.15 46.1084C1070.45 46.1084 1072.34 45.8691 1073.82 45.3906C1076.46 44.502 1078.63 42.793 1080.31 40.2637C1081.66 38.2357 1082.63 35.638 1083.22 32.4707C1083.56 30.5794 1083.73 28.8249 1083.73 27.207C1083.73 20.9863 1082.49 16.1556 1080.01 12.7148C1077.55 9.27409 1073.57 7.55371 1068.08 7.55371H1056.01V46.1084H1068.15ZM1049.18 1.70898H1069.51C1076.42 1.70898 1081.77 4.15853 1085.58 9.05762C1088.97 13.4782 1090.67 19.1406 1090.67 26.0449C1090.67 31.377 1089.67 36.1963 1087.66 40.5029C1084.13 48.1136 1078.06 51.9189 1069.45 51.9189H1049.18V1.70898Z" fill="white"/>
<path d="M1138.21 46.1084C1140.52 46.1084 1142.41 45.8691 1143.89 45.3906C1146.53 44.502 1148.7 42.793 1150.38 40.2637C1151.73 38.2357 1152.7 35.638 1153.29 32.4707C1153.63 30.5794 1153.8 28.8249 1153.8 27.207C1153.8 20.9863 1152.56 16.1556 1150.08 12.7148C1147.61 9.27409 1143.64 7.55371 1138.15 7.55371H1126.08V46.1084H1138.21ZM1119.25 1.70898H1139.58C1146.49 1.70898 1151.84 4.15853 1155.65 9.05762C1159.04 13.4782 1160.74 19.1406 1160.74 26.0449C1160.74 31.377 1159.74 36.1963 1157.73 40.5029C1154.2 48.1136 1148.13 51.9189 1139.51 51.9189H1119.25V1.70898Z" fill="white"/>
<path d="M1170.17 1.70898H1206.78V7.86133H1176.8V23.1055H1204.52V28.916H1176.8V45.9375H1207.29V51.9189H1170.17V1.70898Z" fill="white"/>
<path d="M1220.66 35.7178C1220.82 38.5661 1221.49 40.8789 1222.67 42.6562C1224.93 45.9831 1228.9 47.6465 1234.6 47.6465C1237.15 47.6465 1239.48 47.2819 1241.57 46.5527C1245.63 45.14 1247.66 42.6107 1247.66 38.9648C1247.66 36.2305 1246.8 34.2822 1245.09 33.1201C1243.36 31.9808 1240.65 30.9896 1236.96 30.1465L1230.16 28.6084C1225.71 27.6058 1222.57 26.5007 1220.72 25.293C1217.53 23.1966 1215.94 20.0635 1215.94 15.8936C1215.94 11.3818 1217.5 7.67904 1220.62 4.78516C1223.74 1.89128 1228.16 0.444336 1233.88 0.444336C1239.15 0.444336 1243.61 1.72038 1247.28 4.27246C1250.97 6.80176 1252.82 10.8577 1252.82 16.4404H1246.43C1246.09 13.7516 1245.36 11.6895 1244.24 10.2539C1242.17 7.63346 1238.65 6.32324 1233.68 6.32324C1229.67 6.32324 1226.79 7.16634 1225.03 8.85254C1223.28 10.5387 1222.4 12.4984 1222.4 14.7314C1222.4 17.1924 1223.42 18.9925 1225.48 20.1318C1226.82 20.861 1229.86 21.7725 1234.6 22.8662L1241.64 24.4727C1245.04 25.2474 1247.66 26.307 1249.5 27.6514C1252.69 29.9984 1254.29 33.4049 1254.29 37.8711C1254.29 43.431 1252.26 47.4072 1248.21 49.7998C1244.17 52.1924 1239.48 53.3887 1234.12 53.3887C1227.88 53.3887 1222.99 51.7936 1219.46 48.6035C1215.93 45.4362 1214.2 41.1409 1214.26 35.7178H1220.66Z" fill="white"/>
<path d="M1264.44 1.70898H1271.31V51.9189H1264.44V1.70898Z" fill="white"/>
<path d="M1304.09 0.410156C1308.81 0.410156 1312.88 1.32161 1316.33 3.14453C1321.32 5.76497 1324.37 10.3564 1325.49 16.9189H1318.75C1317.93 13.2503 1316.23 10.5843 1313.66 8.9209C1311.08 7.2347 1307.84 6.3916 1303.92 6.3916C1299.27 6.3916 1295.35 8.13477 1292.16 11.6211C1288.99 15.1074 1287.41 20.3027 1287.41 27.207C1287.41 33.1771 1288.72 38.042 1291.34 41.8018C1293.96 45.5387 1298.23 47.4072 1304.16 47.4072C1308.69 47.4072 1312.44 46.097 1315.4 43.4766C1318.39 40.8333 1319.91 36.5723 1319.98 30.6934H1304.26V25.0537H1326.31V51.9189H1321.93L1320.29 45.459C1317.99 47.9883 1315.95 49.7428 1314.17 50.7227C1311.19 52.4089 1307.39 53.252 1302.79 53.252C1296.84 53.252 1291.73 51.3265 1287.44 47.4756C1282.77 42.6449 1280.44 36.014 1280.44 27.583C1280.44 19.1748 1282.72 12.487 1287.27 7.51953C1291.6 2.77995 1297.21 0.410156 1304.09 0.410156Z" fill="white"/>
<path d="M1336.87 1.70898H1344.9L1370.26 42.3828V1.70898H1376.72V51.9189H1369.1L1343.36 11.2793V51.9189H1336.87V1.70898Z" fill="white"/>
<path d="M1426.21 46.1084C1428.51 46.1084 1430.41 45.8691 1431.89 45.3906C1434.53 44.502 1436.69 42.793 1438.38 40.2637C1439.73 38.2357 1440.69 35.638 1441.29 32.4707C1441.63 30.5794 1441.8 28.8249 1441.8 27.207C1441.8 20.9863 1440.56 16.1556 1438.07 12.7148C1435.61 9.27409 1431.64 7.55371 1426.14 7.55371H1414.08V46.1084H1426.21ZM1407.24 1.70898H1427.58C1434.48 1.70898 1439.84 4.15853 1443.64 9.05762C1447.04 13.4782 1448.74 19.1406 1448.74 26.0449C1448.74 31.377 1447.73 36.1963 1445.73 40.5029C1442.2 48.1136 1436.12 51.9189 1427.51 51.9189H1407.24V1.70898Z" fill="white"/>
<path d="M1480.87 24.7119C1484.06 24.7119 1486.57 24.0739 1488.42 22.7979C1490.29 21.5218 1491.22 19.2204 1491.22 15.8936C1491.22 12.3161 1489.92 9.87793 1487.33 8.5791C1485.94 7.89551 1484.08 7.55371 1481.75 7.55371H1465.14V24.7119H1480.87ZM1458.34 1.70898H1481.58C1485.41 1.70898 1488.57 2.26725 1491.05 3.38379C1495.77 5.52572 1498.13 9.47917 1498.13 15.2441C1498.13 18.252 1497.5 20.7129 1496.25 22.627C1495.02 24.541 1493.28 26.0791 1491.05 27.2412C1493.01 28.0387 1494.48 29.0869 1495.46 30.3857C1496.46 31.6846 1497.02 33.7923 1497.14 36.709L1497.38 43.4424C1497.44 45.3564 1497.6 46.7806 1497.85 47.7148C1498.26 49.3099 1498.99 50.3353 1500.04 50.791V51.9189H1491.7C1491.47 51.486 1491.29 50.9277 1491.15 50.2441C1491.02 49.5605 1490.9 48.2389 1490.81 46.2793L1490.4 37.9053C1490.24 34.624 1489.02 32.4251 1486.75 31.3086C1485.45 30.6934 1483.41 30.3857 1480.63 30.3857H1465.14V51.9189H1458.34V1.70898Z" fill="white"/>
<path d="M1508.76 1.70898H1545.36V7.86133H1515.39V23.1055H1543.11V28.916H1515.39V45.9375H1545.88V51.9189H1508.76V1.70898Z" fill="white"/>
<path d="M1580.57 31.3428L1572.95 9.16016L1564.85 31.3428H1580.57ZM1569.39 1.70898H1577.08L1595.3 51.9189H1587.85L1582.76 36.8799H1562.9L1557.46 51.9189H1550.49L1569.39 1.70898Z" fill="white"/>
<path d="M1601.32 1.70898H1611.06L1625.48 44.1602L1639.8 1.70898H1649.44V51.9189H1642.98V22.2852C1642.98 21.2598 1643 19.5622 1643.05 17.1924C1643.09 14.8226 1643.12 12.2819 1643.12 9.57031L1628.8 51.9189H1622.06L1607.64 9.57031V11.1084C1607.64 12.3389 1607.66 14.2188 1607.71 16.748C1607.78 19.2546 1607.81 21.1003 1607.81 22.2852V51.9189H1601.32V1.70898Z" fill="white"/>
<path d="M1714.59 1.70898V7.69043H1697.67V51.9189H1690.76V7.69043H1673.84V1.70898H1714.59Z" fill="white"/>
<path d="M1721.49 1.70898H1758.1V7.86133H1728.12V23.1055H1755.84V28.916H1728.12V45.9375H1758.61V51.9189H1721.49V1.70898Z" fill="white"/>
<path d="M1793.3 31.3428L1785.68 9.16016L1777.58 31.3428H1793.3ZM1782.13 1.70898H1789.82L1808.03 51.9189H1800.58L1795.49 36.8799H1775.63L1770.2 51.9189H1763.22L1782.13 1.70898Z" fill="white"/>
<path d="M1814.05 1.70898H1823.79L1838.21 44.1602L1852.54 1.70898H1862.17V51.9189H1855.71V22.2852C1855.71 21.2598 1855.74 19.5622 1855.78 17.1924C1855.83 14.8226 1855.85 12.2819 1855.85 9.57031L1841.53 51.9189H1834.8L1820.37 9.57031V11.1084C1820.37 12.3389 1820.4 14.2188 1820.44 16.748C1820.51 19.2546 1820.54 21.1003 1820.54 22.2852V51.9189H1814.05V1.70898Z" fill="white"/>
</g>
</g>
<g id="logo1">
<path id="S" d="M148.241 35.3839C148.534 37.5057 149.11 39.0917 149.969 40.1421C151.541 42.0538 154.234 43.0096 158.047 43.0096C160.331 43.0096 162.186 42.7575 163.61 42.2533C166.313 41.287 167.665 39.4909 167.665 36.8649C167.665 35.3314 166.994 34.1445 165.653 33.3042C164.312 32.4849 162.207 31.7601 159.336 31.1299L154.433 30.027C149.613 28.9346 146.281 27.7477 144.438 26.4662C141.315 24.3234 139.754 20.9727 139.754 16.4141C139.754 12.2546 141.263 8.7989 144.28 6.04692C147.298 3.29494 151.73 1.91895 157.576 1.91895C162.458 1.91895 166.617 3.22141 170.054 5.82634C173.511 8.41026 175.324 12.1706 175.491 17.1074H166.188C166.02 14.3134 164.805 12.3282 162.542 11.1517C161.033 10.3745 159.158 9.98583 156.916 9.98583C154.422 9.98583 152.431 10.49 150.944 11.4984C149.456 12.5067 148.712 13.9142 148.712 15.7209C148.712 17.3805 149.446 18.6199 150.912 19.4392C151.855 19.9854 153.867 20.6261 156.947 21.3614L164.931 23.2836C168.43 24.1239 171.07 25.2478 172.851 26.6553C175.617 28.8401 177 32.0017 177 36.1402C177 40.3837 175.376 43.9129 172.128 46.7279C168.901 49.5219 164.333 50.9189 158.424 50.9189C152.39 50.9189 147.644 49.543 144.186 46.791C140.729 44.018 139 40.2156 139 35.3839H148.241Z" fill="white"/>
<path id="S_2" d="M121.002 35.3839C120.717 37.5057 120.156 39.0917 119.319 40.1421C117.789 42.0538 115.167 43.0096 111.454 43.0096C109.23 43.0096 107.425 42.7575 106.037 42.2533C103.405 41.287 102.089 39.4909 102.089 36.8649C102.089 35.3314 102.742 34.1445 104.048 33.3042C105.354 32.4849 107.404 31.7601 110.199 31.1299L114.974 30.027C119.666 28.9346 122.91 27.7477 124.706 26.4662C127.746 24.3234 129.266 20.9727 129.266 16.4141C129.266 12.2546 127.797 8.7989 124.859 6.04692C121.921 3.29494 117.605 1.91895 111.913 1.91895C107.159 1.91895 103.109 3.22141 99.7634 5.82634C96.397 8.41026 94.6322 12.1706 94.469 17.1074H103.528C103.691 14.3134 104.874 12.3282 107.078 11.1517C108.547 10.3745 110.373 9.98583 112.556 9.98583C114.984 9.98583 116.922 10.49 118.371 11.4984C119.819 12.5067 120.543 13.9142 120.543 15.7209C120.543 17.3805 119.829 18.6199 118.401 19.4392C117.483 19.9854 115.524 20.6261 112.525 21.3614L104.752 23.2836C101.345 24.1239 98.7739 25.2478 97.0397 26.6553C94.3466 28.8401 93 32.0017 93 36.1402C93 40.3837 94.5812 43.9129 97.7436 46.7279C100.886 49.5219 105.333 50.9189 111.087 50.9189C116.963 50.9189 121.584 49.543 124.95 46.791C128.317 44.018 130 40.2156 130 35.3839H121.002Z" fill="white"/>
<path id="S_3" d="M28.7593 35.3839C28.466 37.5057 27.8897 39.0917 27.0306 40.1421C25.4591 42.0538 22.7665 43.0096 18.9529 43.0096C16.6689 43.0096 14.8144 42.7575 13.3896 42.2533C10.6865 41.287 9.33499 39.4909 9.33499 36.8649C9.33499 35.3314 10.0055 34.1445 11.3466 33.3042C12.6876 32.4849 14.7935 31.7601 17.6642 31.1299L22.5674 30.027C27.3868 28.9346 30.7185 27.7477 32.5624 26.4662C35.6846 24.3234 37.2457 20.9727 37.2457 16.4141C37.2457 12.2546 35.737 8.7989 32.7196 6.04692C29.7022 3.29494 25.2705 1.91895 19.4243 1.91895C14.542 1.91895 10.3827 3.22141 6.94624 5.82634C3.48883 8.41026 1.67632 12.1706 1.50869 17.1074H10.8122C10.9799 14.3134 12.1952 12.3282 14.4582 11.1517C15.9669 10.3745 17.8423 9.98583 20.0844 9.98583C22.5779 9.98583 24.5685 10.49 26.0562 11.4984C27.544 12.5067 28.2878 13.9142 28.2878 15.7209C28.2878 17.3805 27.5545 18.6199 26.0877 19.4392C25.1447 19.9854 23.1332 20.6261 20.0529 21.3614L12.0695 23.2836C8.57017 24.1239 5.92997 25.2478 4.14888 26.6553C1.38296 28.8401 7.55361e-07 32.0017 7.55361e-07 36.1402C7.55361e-07 40.3837 1.62393 43.9129 4.8718 46.7279C8.0987 49.5219 12.6667 50.9189 18.5757 50.9189C24.6104 50.9189 29.3565 49.543 32.8139 46.791C36.2713 44.018 38 40.2156 38 35.3839H28.7593Z" fill="white"/>
<path id="O" d="M65.0163 42.7209C68.988 42.7209 72.1349 41.3074 74.4572 38.4805C76.8011 35.6536 77.9731 31.633 77.9731 26.4189C77.9731 21.2258 76.8011 17.2157 74.4572 14.3888C72.1349 11.541 68.988 10.117 65.0163 10.117C61.0446 10.117 57.8759 11.5305 55.5103 14.3574C53.1446 17.1843 51.9618 21.2048 51.9618 26.4189C51.9618 31.633 53.1446 35.6536 55.5103 38.4805C57.8759 41.3074 61.0446 42.7209 65.0163 42.7209ZM88 26.4189C88 34.7322 85.5801 41.098 80.7403 45.5164C77.1158 49.1181 71.8745 50.9189 65.0163 50.9189C58.1581 50.9189 52.9167 49.1181 49.2923 45.5164C44.4308 41.098 42 34.7322 42 26.4189C42 17.9382 44.4308 11.5724 49.2923 7.32151C52.9167 3.7198 58.1581 1.91895 65.0163 1.91895C71.8745 1.91895 77.1158 3.7198 80.7403 7.32151C85.5801 11.5724 88 17.9382 88 26.4189Z" fill="white"/>
</g>
<g id="logo2">
<path id="S_4" d="M148.241 84.465C148.534 86.5867 149.11 88.1728 149.969 89.2232C151.541 91.1348 154.234 92.0907 158.047 92.0907C160.331 92.0907 162.186 91.8386 163.61 91.3344C166.313 90.3681 167.665 88.5719 167.665 85.946C167.665 84.4124 166.994 83.2255 165.653 82.3852C164.312 81.5659 162.207 80.8412 159.336 80.2109L154.433 79.108C149.613 78.0156 146.281 76.8287 144.438 75.5473C141.315 73.4045 139.754 70.0538 139.754 65.4952C139.754 61.3357 141.263 57.88 144.28 55.128C147.298 52.376 151.73 51 157.576 51C162.458 51 166.617 52.3025 170.054 54.9074C173.511 57.4913 175.324 61.2517 175.491 66.1884H166.188C166.02 63.3944 164.805 61.4092 162.542 60.2328C161.033 59.4555 159.158 59.0669 156.916 59.0669C154.422 59.0669 152.431 59.5711 150.944 60.5794C149.456 61.5878 148.712 62.9953 148.712 64.8019C148.712 66.4615 149.446 67.701 150.912 68.5203C151.855 69.0665 153.867 69.7072 156.947 70.4424L164.931 72.3646C168.43 73.2049 171.07 74.3288 172.851 75.7363C175.617 77.9211 177 81.0827 177 85.2212C177 89.4647 175.376 92.994 172.128 95.809C168.901 98.603 164.333 100 158.424 100C152.39 100 147.644 98.624 144.186 95.872C140.729 93.099 139 89.2967 139 84.465H148.241Z" fill="white"/>
<path id="S_5" d="M121.002 84.465C120.717 86.5867 120.156 88.1728 119.319 89.2232C117.789 91.1348 115.167 92.0907 111.454 92.0907C109.23 92.0907 107.425 91.8386 106.037 91.3344C103.405 90.3681 102.089 88.5719 102.089 85.946C102.089 84.4124 102.742 83.2255 104.048 82.3852C105.354 81.5659 107.404 80.8412 110.199 80.2109L114.974 79.108C119.666 78.0156 122.91 76.8287 124.706 75.5473C127.746 73.4045 129.266 70.0538 129.266 65.4952C129.266 61.3357 127.797 57.88 124.859 55.128C121.921 52.376 117.605 51 111.913 51C107.159 51 103.109 52.3025 99.7634 54.9074C96.397 57.4913 94.6322 61.2517 94.469 66.1884H103.528C103.691 63.3944 104.874 61.4092 107.078 60.2328C108.547 59.4555 110.373 59.0669 112.556 59.0669C114.984 59.0669 116.922 59.5711 118.371 60.5794C119.819 61.5878 120.543 62.9953 120.543 64.8019C120.543 66.4615 119.829 67.701 118.401 68.5203C117.483 69.0665 115.524 69.7072 112.525 70.4424L104.752 72.3646C101.345 73.2049 98.7739 74.3288 97.0397 75.7363C94.3466 77.9211 93 81.0827 93 85.2212C93 89.4647 94.5812 92.994 97.7436 95.809C100.886 98.603 105.333 100 111.087 100C116.963 100 121.584 98.624 124.95 95.872C128.317 93.099 130 89.2967 130 84.465H121.002Z" fill="white"/>
<path id="S_6" d="M28.7593 84.465C28.466 86.5867 27.8897 88.1728 27.0306 89.2232C25.4591 91.1348 22.7665 92.0907 18.9529 92.0907C16.6689 92.0907 14.8144 91.8386 13.3896 91.3344C10.6865 90.3681 9.33499 88.5719 9.33499 85.946C9.33499 84.4124 10.0055 83.2255 11.3466 82.3852C12.6876 81.5659 14.7935 80.8412 17.6642 80.2109L22.5674 79.108C27.3868 78.0156 30.7185 76.8287 32.5624 75.5473C35.6846 73.4045 37.2457 70.0538 37.2457 65.4952C37.2457 61.3357 35.737 57.88 32.7196 55.128C29.7022 52.376 25.2705 51 19.4243 51C14.542 51 10.3827 52.3025 6.94624 54.9074C3.48883 57.4913 1.67632 61.2517 1.50869 66.1884H10.8122C10.9799 63.3944 12.1952 61.4092 14.4582 60.2328C15.9669 59.4555 17.8423 59.0669 20.0844 59.0669C22.5779 59.0669 24.5685 59.5711 26.0562 60.5794C27.544 61.5878 28.2878 62.9953 28.2878 64.8019C28.2878 66.4615 27.5545 67.701 26.0877 68.5203C25.1447 69.0665 23.1332 69.7072 20.0529 70.4424L12.0695 72.3646C8.57017 73.2049 5.92997 74.3288 4.14888 75.7363C1.38296 77.9211 0 81.0827 0 85.2212C0 89.4647 1.62393 92.994 4.8718 95.809C8.09871 98.603 12.6667 100 18.5757 100C24.6104 100 29.3565 98.624 32.8139 95.872C36.2713 93.099 38 89.2967 38 84.465H28.7593Z" fill="white"/>
<path id="O_2" d="M65.0163 91.8019C68.988 91.8019 72.1349 90.3885 74.4572 87.5615C76.8011 84.7346 77.9731 80.7141 77.9731 75.5C77.9731 70.3068 76.8011 66.2968 74.4572 63.4699C72.1349 60.622 68.988 59.1981 65.0163 59.1981C61.0446 59.1981 57.8759 60.6115 55.5103 63.4385C53.1446 66.2654 51.9618 70.2859 51.9618 75.5C51.9618 80.7141 53.1446 84.7346 55.5103 87.5615C57.8759 90.3885 61.0446 91.8019 65.0163 91.8019ZM88 75.5C88 83.8132 85.5801 90.1791 80.7403 94.5974C77.1158 98.1991 71.8745 100 65.0163 100C58.1581 100 52.9167 98.1991 49.2923 94.5974C44.4308 90.1791 42 83.8132 42 75.5C42 67.0192 44.4308 60.6534 49.2923 56.4026C52.9167 52.8009 58.1581 51 65.0163 51C71.8745 51 77.1158 52.8009 80.7403 56.4026C85.5801 60.6534 88 67.0192 88 75.5Z" fill="white"/>
</g>
</g>
</svg>
