<svg width="739" height="54" viewBox="0 0 739 54" fill="none" xmlns="http://www.w3.org/2000/svg">
<path d="M148.241 36.465C148.534 38.5867 149.11 40.1728 149.969 41.2232C151.541 43.1348 154.234 44.0907 158.047 44.0907C160.331 44.0907 162.186 43.8386 163.61 43.3344C166.313 42.3681 167.665 40.5719 167.665 37.946C167.665 36.4124 166.994 35.2255 165.653 34.3852C164.312 33.5659 162.207 32.8412 159.336 32.2109L154.433 31.108C149.613 30.0156 146.281 28.8287 144.438 27.5473C141.315 25.4045 139.754 22.0538 139.754 17.4952C139.754 13.3357 141.263 9.87996 144.28 7.12797C147.298 4.37599 151.73 3 157.576 3C162.458 3 166.617 4.30247 170.054 6.9074C173.511 9.49132 175.324 13.2517 175.491 18.1884H166.188C166.02 15.3944 164.805 13.4092 162.542 12.2328C161.033 11.4555 159.158 11.0669 156.916 11.0669C154.422 11.0669 152.431 11.5711 150.944 12.5794C149.456 13.5878 148.712 14.9953 148.712 16.8019C148.712 18.4615 149.446 19.701 150.912 20.5203C151.855 21.0665 153.867 21.7072 156.947 22.4424L164.931 24.3646C168.43 25.2049 171.07 26.3288 172.851 27.7363C175.617 29.9211 177 33.0827 177 37.2212C177 41.4647 175.376 44.994 172.128 47.809C168.901 50.603 164.333 52 158.424 52C152.39 52 147.644 50.624 144.186 47.872C140.729 45.099 139 41.2967 139 36.465H148.241Z" fill="white"/>
<path d="M121.002 36.465C120.717 38.5867 120.156 40.1728 119.319 41.2232C117.789 43.1348 115.167 44.0907 111.454 44.0907C109.23 44.0907 107.425 43.8386 106.037 43.3344C103.405 42.3681 102.089 40.5719 102.089 37.946C102.089 36.4124 102.742 35.2255 104.048 34.3852C105.354 33.5659 107.404 32.8412 110.199 32.2109L114.974 31.108C119.666 30.0156 122.91 28.8287 124.706 27.5473C127.746 25.4045 129.266 22.0538 129.266 17.4952C129.266 13.3357 127.797 9.87996 124.859 7.12797C121.921 4.37599 117.605 3 111.913 3C107.159 3 103.109 4.30247 99.7634 6.9074C96.397 9.49132 94.6322 13.2517 94.469 18.1884H103.528C103.691 15.3944 104.874 13.4092 107.078 12.2328C108.547 11.4555 110.373 11.0669 112.556 11.0669C114.984 11.0669 116.922 11.5711 118.371 12.5794C119.819 13.5878 120.543 14.9953 120.543 16.8019C120.543 18.4615 119.829 19.701 118.401 20.5203C117.483 21.0665 115.524 21.7072 112.525 22.4424L104.752 24.3646C101.345 25.2049 98.7739 26.3288 97.0397 27.7363C94.3466 29.9211 93 33.0827 93 37.2212C93 41.4647 94.5812 44.994 97.7436 47.809C100.886 50.603 105.333 52 111.087 52C116.963 52 121.584 50.624 124.95 47.872C128.317 45.099 130 41.2967 130 36.465H121.002Z" fill="white"/>
<path d="M28.7593 36.465C28.466 38.5867 27.8897 40.1728 27.0306 41.2232C25.4591 43.1348 22.7665 44.0907 18.9529 44.0907C16.6689 44.0907 14.8144 43.8386 13.3896 43.3344C10.6865 42.3681 9.33499 40.5719 9.33499 37.946C9.33499 36.4124 10.0055 35.2255 11.3466 34.3852C12.6876 33.5659 14.7935 32.8412 17.6642 32.2109L22.5674 31.108C27.3868 30.0156 30.7185 28.8287 32.5624 27.5473C35.6846 25.4045 37.2457 22.0538 37.2457 17.4952C37.2457 13.3357 35.737 9.87996 32.7196 7.12797C29.7022 4.37599 25.2705 3 19.4243 3C14.542 3 10.3827 4.30247 6.94624 6.9074C3.48883 9.49132 1.67632 13.2517 1.50869 18.1884H10.8122C10.9799 15.3944 12.1952 13.4092 14.4582 12.2328C15.9669 11.4555 17.8423 11.0669 20.0844 11.0669C22.5779 11.0669 24.5685 11.5711 26.0562 12.5794C27.544 13.5878 28.2878 14.9953 28.2878 16.8019C28.2878 18.4615 27.5545 19.701 26.0877 20.5203C25.1447 21.0665 23.1332 21.7072 20.0529 22.4424L12.0695 24.3646C8.57017 25.2049 5.92997 26.3288 4.14888 27.7363C1.38296 29.9211 7.55361e-07 33.0827 7.55361e-07 37.2212C7.55361e-07 41.4647 1.62393 44.994 4.8718 47.809C8.0987 50.603 12.6667 52 18.5757 52C24.6104 52 29.3565 50.624 32.8139 47.872C36.2713 45.099 38 41.2967 38 36.465H28.7593Z" fill="white"/>
<path d="M65.0163 43.8019C68.988 43.8019 72.1349 42.3885 74.4572 39.5615C76.8011 36.7346 77.9731 32.7141 77.9731 27.5C77.9731 22.3068 76.8011 18.2968 74.4572 15.4699C72.1349 12.622 68.988 11.1981 65.0163 11.1981C61.0446 11.1981 57.8759 12.6115 55.5103 15.4385C53.1446 18.2654 51.9618 22.2859 51.9618 27.5C51.9618 32.7141 53.1446 36.7346 55.5103 39.5615C57.8759 42.3885 61.0446 43.8019 65.0163 43.8019ZM88 27.5C88 35.8132 85.5801 42.1791 80.7403 46.5974C77.1158 50.1991 71.8745 52 65.0163 52C58.1581 52 52.9167 50.1991 49.2923 46.5974C44.4308 42.1791 42 35.8132 42 27.5C42 19.0192 44.4308 12.6534 49.2923 8.40256C52.9167 4.80085 58.1581 3 65.0163 3C71.8745 3 77.1158 4.80085 80.7403 8.40256C85.5801 12.6534 88 19.0192 88 27.5Z" fill="white"/>
<path d="M258.811 1.53809V10.459H243.737V51.9189H233.142V10.459H218V1.53809H258.811Z" fill="white"/>
<path d="M271.867 1.53809L278.532 30.3857L279.968 38.418L281.438 30.5566L287.111 1.53809H298.22L304.201 30.3857L305.739 38.418L307.277 30.6934L314.011 1.53809H324.709L310.524 51.9189H300.476L294.392 22.4561L292.614 12.7148L290.837 22.4561L284.753 51.9189H274.978L260.69 1.53809H271.867Z" fill="white"/>
<path d="M368.356 10.459H341.696V21.1572H366.169V29.9072H341.696V42.8613H369.587V51.9189H331.408V1.53809H368.356V10.459Z" fill="white"/>
<path d="M377.619 1.53809H388.659L408.723 36.709V1.53809H418.532V51.9189H408.005L387.429 16.1328V51.9189H377.619V1.53809Z" fill="white"/>
<path d="M464.982 1.53809V10.459H449.909V51.9189H439.313V10.459H424.172V1.53809H464.982Z" fill="white"/>
<path d="M499.914 1.53809H511.843L494.992 32.9834V51.9189H484.465V32.9834L467.033 1.53809H479.44L489.899 23.4814L499.914 1.53809Z" fill="white"/>
<path d="M572.717 1.53809V10.459H557.644V51.9189H547.048V10.459H531.906V1.53809H572.717Z" fill="white"/>
<path d="M585.773 1.53809L592.438 30.3857L593.874 38.418L595.344 30.5566L601.018 1.53809H612.126L618.107 30.3857L619.646 38.418L621.184 30.6934L627.917 1.53809H638.615L624.431 51.9189H614.382L608.298 22.4561L606.521 12.7148L604.743 22.4561L598.659 51.9189H588.884L574.597 1.53809H585.773Z" fill="white"/>
<path d="M667.292 44.3994C671.462 44.3994 674.766 42.8613 677.204 39.7852C679.665 36.709 680.896 32.334 680.896 26.6602C680.896 21.0091 679.665 16.6455 677.204 13.5693C674.766 10.4704 671.462 8.9209 667.292 8.9209C663.122 8.9209 659.795 10.459 657.312 13.5352C654.828 16.6113 653.586 20.9863 653.586 26.6602C653.586 32.334 654.828 36.709 657.312 39.7852C659.795 42.8613 663.122 44.3994 667.292 44.3994ZM691.423 26.6602C691.423 35.7064 688.882 42.6335 683.801 47.4414C679.995 51.3607 674.493 53.3203 667.292 53.3203C660.091 53.3203 654.589 51.3607 650.783 47.4414C645.679 42.6335 643.127 35.7064 643.127 26.6602C643.127 17.4316 645.679 10.5046 650.783 5.87891C654.589 1.95964 660.091 0 667.292 0C674.493 0 679.995 1.95964 683.801 5.87891C688.882 10.5046 691.423 17.4316 691.423 26.6602Z" fill="white"/>
<path d="M707.111 36.3672C707.43 38.6686 708.057 40.389 708.991 41.5283C710.7 43.6019 713.628 44.6387 717.775 44.6387C720.259 44.6387 722.276 44.3652 723.825 43.8184C726.765 42.7702 728.234 40.8219 728.234 37.9736C728.234 36.3102 727.505 35.0228 726.047 34.1113C724.589 33.2227 722.299 32.4365 719.177 31.7529L713.845 30.5566C708.604 29.3717 704.981 28.0843 702.976 26.6943C699.58 24.3701 697.883 20.7357 697.883 15.791C697.883 11.2793 699.523 7.53092 702.805 4.5459C706.086 1.56087 710.905 0.0683594 717.263 0.0683594C722.572 0.0683594 727.095 1.48112 730.832 4.30664C734.592 7.10938 736.563 11.1882 736.745 16.543H726.628C726.446 13.5124 725.124 11.359 722.663 10.083C721.022 9.23991 718.983 8.81836 716.545 8.81836C713.833 8.81836 711.669 9.36523 710.051 10.459C708.433 11.5527 707.624 13.0794 707.624 15.0391C707.624 16.8392 708.422 18.1836 710.017 19.0723C711.042 19.6647 713.229 20.3597 716.579 21.1572L725.261 23.2422C729.066 24.1536 731.937 25.3727 733.874 26.8994C736.882 29.2692 738.386 32.6986 738.386 37.1875C738.386 41.7904 736.62 45.6185 733.088 48.6719C729.579 51.7025 724.611 53.2178 718.186 53.2178C711.623 53.2178 706.462 51.7253 702.702 48.7402C698.942 45.7324 697.062 41.6081 697.062 36.3672H707.111Z" fill="white"/>
</svg>
